General
Complete name                            : Lord of War 2005 BRRiP x246 Esub 280MB - cRcWoRLd [crcworldmovies . ws].mp4
Format                                   : MPEG-4
Format profile                           : Base Media / Version 2
Codec ID                                 : mp42
File size                                : 280 MiB
Duration                                 : 2h 1mn
Overall bit rate mode                    : Variable
Overall bit rate                         : 321 Kbps

Video
ID                                       : 1
Format                                   : AVC
Format/Info                              : Advanced Video Codec
Format profile                           : High@L2.1
Format settings, CABAC                   : No
Format settings, ReFrames                : 4 frames
Codec ID                                 : avc1
Codec ID/Info                            : Advanced Video Coding
Duration                                 : 2h 1mn
Bit rate mode                            : Variable
Bit rate                                 : 250 Kbps
Width                                    : 640 pixels
Height                                   : 256 pixels
Display aspect ratio                     : 2.40:1
Original display aspect ratio            : 2.40:1
Frame rate mode                          : Variable
Frame rate                               : 23.976 fps
Minimum frame rate                       : 23.974 fps
Maximum frame rate                       : 90 000.000 fps
Color space                              : YUV
Chroma subsampling                       : 4:2:0
Bit depth                                : 8 bits
Scan type                                : Progressive
Bits/(Pixel*Frame)                       : 0.064
Stream size                              : 219 MiB (78%)
Writing library                          : x264 core 120

Audio
ID                                       : 2
Format                                   : AAC
Format/Info                              : Advanced Audio Codec
Format profile                           : LC
Codec ID                                 : 40
Duration                                 : 2h 1mn
Bit rate mode                            : Variable
Bit rate                                 : 64.2 Kbps
Maximum bit rate                         : 114 Kbps
Channel(s)                               : 2 channels
Channel positions                        : Front: L R
Sampling rate                            : 48.0 KHz
Compression mode                         : Lossy
Stream size                              : 55.9 MiB (20%)
Text
ID                                       : 3
Format                                   : Timed text
Muxing mode                              : sbtl
Codec ID                                 : tx3g
Duration                                 : 1h 55mn
Bit rate mode                            : Variable
Bit rate                                 : 69 bps
Stream size                              : 58.4 KiB (0%)
Language                                 : English
 
http://www.postimg.com/96000/low-95066.jpg 
http://www.postimg.com/96000/gggg-95107.jpg

fb . com / CRCWORLDtorrents